HIERARCHY
ROOT Hips
{
	OFFSET -3.958830 18.904000 13.208200
	CHANNELS 6 Xposition Yposition Zposition Zrotation Yrotation Xrotation 
	JOINT LHipJoint
	{
		OFFSET 0.000000 0.000000 0.000000
		CHANNELS 3 Zrotation Yrotation Xrotation
		JOINT LeftUpLeg
		{
			OFFSET 1.800000 -1.400000 0.085000
			CHANNELS 3 Zrotation Yrotation Xrotation
			JOINT LeftLeg
			{
				OFFSET 2.215000 -6.000000 0.000000
				CHANNELS 3 Zrotation Yrotation Xrotation
				JOINT LeftFoot
				{
					OFFSET 2.500000 -6.900000 0.000000
					CHANNELS 3 Zrotation Yrotation Xrotation
					JOINT LeftToeBase
					{
						OFFSET 0.200000 -0.500000 1.950000
						CHANNELS 3 Zrotation Yrotation Xrotation
						End Site
						{
							OFFSET 0.000000 0.000000 0.000000
						}
					}
				}
			}
		}
	}
	JOINT RHipJoint
	{
		OFFSET 0.000000 0.000000 0.000000
		CHANNELS 3 Zrotation Yrotation Xrotation
		JOINT RightUpLeg
		{
			OFFSET -1.800000 -1.400000 0.085000
			CHANNELS 3 Zrotation Yrotation Xrotation
			JOINT RightLeg
			{
				OFFSET -2.215000 -6.000000 0.000000
				CHANNELS 3 Zrotation Yrotation Xrotation
				JOINT RightFoot
				{
					OFFSET -2.500000 -6.900000 0.000000
					CHANNELS 3 Zrotation Yrotation Xrotation
					JOINT RightToeBase
					{
						OFFSET -0.200000 -0.500000 1.950000
						CHANNELS 3 Zrotation Yrotation Xrotation
						End Site
						{
							OFFSET 0.000000 0.000000 0.000000
						}
					}
				}
			}
		}
	}
	JOINT LowerBack
	{
		OFFSET 0.000000 0.000000 0.000000
		CHANNELS 3 Zrotation Yrotation Xrotation
		JOINT Spine
		{
			OFFSET -0.087000 1.940000 -0.288900
			CHANNELS 3 Zrotation Yrotation Xrotation
			JOINT Spine1
			{
				OFFSET 0.000000 1.950000 0.060000
				CHANNELS 3 Zrotation Yrotation Xrotation
				JOINT Neck
				{
					OFFSET 0.000000 0.000000 0.000000
					CHANNELS 3 Zrotation Yrotation Xrotation
					JOINT Neck1
					{
						OFFSET 0.000000 1.600000 0.340000
						CHANNELS 3 Zrotation Yrotation Xrotation
						JOINT Head
						{
							OFFSET 0.000000 1.667000 -0.240000
							CHANNELS 3 Zrotation Yrotation Xrotation
							End Site
							{
								OFFSET 0.000000 0.000000 0.000000
							}
						}
					}
				}
				JOINT LeftShoulder
				{
					OFFSET 0.000000 0.000000 0.000000
					CHANNELS 3 Zrotation Yrotation Xrotation
					JOINT LeftArm
					{
						OFFSET 2.700000 1.550000 -0.730000
						CHANNELS 3 Zrotation Yrotation Xrotation
						JOINT LeftForeArm
						{
							OFFSET 5.450000 0.000000 0.000000
							CHANNELS 3 Zrotation Yrotation Xrotation
							JOINT LeftHand
							{
								OFFSET 3.450000 0.000000 0.000000
								CHANNELS 3 Zrotation Yrotation Xrotation
								JOINT LeftHandIndex1
								{
									OFFSET 0.750000 0.000000 0.000000
									CHANNELS 3 Zrotation Yrotation Xrotation
									End Site
									{
										OFFSET 0.000000 0.000000 0.000000
									}
								}
							}
						}
					}
				}
				JOINT RightShoulder
				{
					OFFSET 0.000000 0.000000 0.000000
					CHANNELS 3 Zrotation Yrotation Xrotation
					JOINT RightArm
					{
						OFFSET -2.700000 1.550000 -0.730000
						CHANNELS 3 Zrotation Yrotation Xrotation
						JOINT RightForeArm
						{
							OFFSET -5.450000 0.000000 0.000000
							CHANNELS 3 Zrotation Yrotation Xrotation
							JOINT RightHand
							{
								OFFSET -3.450000 0.000000 0.000000
								CHANNELS 3 Zrotation Yrotation Xrotation
								JOINT RightHandIndex1
								{
									OFFSET -0.750000 0.000000 0.000000
									CHANNELS 3 Zrotation Yrotation Xrotation
									End Site
									{
										OFFSET 0.000000 0.000000 0.000000
									}
								}
							}
						}
					}
				}
			}
		}
	}
}
MOTION
Frames: 12
Frame Time: 0.016667
-4.891710 17.519140 -22.640650 176.226019 38.784217 -174.279204 -14.948162 13.910906 3.519507 5.595914 -0.902030 2.404759 -10.441545 6.764823 7.436134 -0.484204 5.831846 2.762235 -0.277960 -1.171240 0.164970 18.316632 -9.959116 4.325642 15.687564 5.229777 -19.454580 3.066932 -3.101790 10.390925 0.123420 -1.993308 3.579204 -0.545690 0.405380 0.393980 -3.382300 -3.203387 -9.039457 16.151752 -8.539430 5.353836 -8.620941 -3.149195 -24.141579 2.317972 1.664772 -14.818061 -0.468866 -14.136764 41.073171 -5.156900 -17.057520 -4.653430 0.672484 -0.498007 2.067803 -13.326236 3.999489 -1.119871 4.336057 -8.090528 -1.066283 -4.265563 2.234289 0.949840 0.061470 -0.183920 -0.185780 -9.138758 4.887558 12.144138 26.109930 -6.217502 -3.638975 -6.108949 -3.170425 1.239052 2.636100 -0.691043 -0.543010 0.145330 0.567050 -0.367770 
-4.639110 17.728420 -22.704840 178.027938 41.453436 -172.851289 -14.979357 13.815390 3.591070 5.644967 -0.974347 0.248195 -10.921436 6.021904 3.808210 -0.519328 5.587098 2.842643 -0.340650 -1.232690 0.105330 18.328705 -9.797212 4.327704 16.986435 4.257451 -16.308921 2.648733 -2.747374 5.255688 0.135068 -2.041962 3.579373 -0.573390 0.453710 0.407890 -3.482320 -3.439864 -9.047052 18.654845 -8.048879 5.062725 -8.696357 -2.429649 -22.810627 2.075595 0.804032 -15.248190 -1.880016 -13.091691 41.012690 -4.532210 -16.890960 -3.436570 3.614928 0.198667 2.033857 -16.468830 3.475290 -1.545532 6.421756 -7.144363 -1.130150 -4.342158 2.237609 0.913110 0.101460 -0.219850 -0.207540 -11.619753 5.413352 12.551090 26.004868 -4.932882 -3.486064 -4.805200 -2.315775 1.041413 2.625207 -0.661263 -0.547510 0.129780 0.610700 -0.346710 
-4.365520 17.906920 -22.748410 176.359208 43.454755 -174.449945 -14.952879 13.767352 3.653780 4.065154 -0.837549 -1.517331 -10.696593 5.640985 3.180899 -0.723014 5.485013 2.857134 -0.480860 -1.460580 0.051460 18.321019 -10.046807 4.207238 14.873136 3.281076 -14.537108 3.466087 -3.077068 4.457048 0.177353 -2.266170 3.496452 -0.636040 0.539090 0.425390 -3.469638 -3.102631 -9.032270 16.301324 -7.015865 4.748349 -7.464546 -2.255699 -21.045579 1.805464 0.537719 -16.278255 -2.536668 -12.695222 42.163330 -5.979680 -16.775690 -0.852150 4.018947 -1.691887 3.003108 -16.089691 4.386375 -1.461666 8.455094 -7.177942 -1.245210 -4.452752 2.157177 0.975710 0.161250 -0.291700 -0.275330 -11.241814 7.048056 13.245241 25.051242 -5.747318 -3.611129 -6.054014 -3.156732 1.306181 2.609606 -0.590177 -0.668070 0.154790 0.749080 -0.395660 
-4.116210 18.080770 -22.821580 176.070176 45.723915 -175.266330 -14.889493 13.695304 3.783681 3.147059 -0.702119 -2.459492 -10.112140 4.975468 0.636745 -0.618963 5.121347 3.074490 -0.486020 -1.363780 -0.062800 18.341691 -10.309627 4.076139 13.140703 2.880536 -14.146743 3.539152 -3.377830 7.521465 0.166130 -2.420750 3.523965 -0.618420 0.611850 0.331750 -3.619267 -2.668917 -8.977190 16.687670 -6.498151 5.462601 -8.406829 -1.679858 -20.984477 1.008660 0.618590 -16.585833 -2.233528 -12.938028 43.437567 -4.835500 -18.328610 1.913710 4.542269 -2.118127 2.908238 -13.922053 2.714005 -1.156215 7.535490 -4.376548 -1.101805 -4.490111 2.069764 0.847980 0.182610 -0.338210 -0.183100 -10.552061 7.876795 13.799295 23.042638 -5.564926 -2.999277 -5.130333 -5.644549 1.331727 2.674919 -0.607331 -0.631950 0.232340 0.692990 -0.295970 
-3.881710 18.212140 -22.887900 175.182975 47.298909 -176.190653 -14.869008 13.682405 3.793837 2.005788 -0.766036 -4.536275 -8.548021 4.450333 0.131529 -0.762049 4.853851 3.211264 -0.557090 -1.445070 -0.099790 18.323262 -10.574160 3.934933 10.672940 2.479646 -13.770395 3.125430 -3.466619 7.994060 0.224948 -2.531287 3.537002 -0.620670 0.722070 0.297640 -3.574242 -2.308705 -8.862508 16.027550 -6.081248 6.752288 -8.598300 -1.224106 -20.609814 0.789530 1.145173 -16.593000 -0.604544 -13.240400 40.714015 -4.888720 -17.867140 2.702800 5.538715 -2.215357 2.753648 -13.760913 2.057003 -1.017993 9.525496 -4.115066 -1.050229 -4.608057 1.968351 0.827280 0.261210 -0.418210 -0.189760 -11.460580 8.018827 14.028537 23.888314 -4.851984 -2.879439 -8.084044 -9.694780 2.165878 2.734490 -0.595096 -0.718790 0.313460 0.739970 -0.303210 
-3.608790 18.305240 -22.935250 172.879563 49.395368 -176.729455 -14.858820 13.469986 3.822888 0.240588 -1.177848 -7.772661 -8.110238 3.974615 -0.022490 -0.799349 4.422844 3.358525 -0.503900 -1.392580 -0.103160 18.300348 -10.863458 3.865741 7.025718 1.744838 -12.730204 5.630632 -3.583498 4.103841 0.177509 -2.712281 3.457230 -0.596710 0.708410 0.318360 -3.497615 -1.564115 -8.845470 12.545556 -5.387745 6.773424 -6.014884 -1.267218 -21.565803 -0.180548 1.533621 -16.275681 0.701786 -13.552811 38.205945 -3.944850 -18.119030 3.409600 8.012765 -0.695054 2.187561 -15.104685 3.177657 -1.838347 9.379568 -7.472211 -1.019425 -4.538917 2.153017 0.764500 0.253710 -0.436170 -0.143500 -12.525567 6.515324 13.656279 21.068661 -3.281961 -2.325951 -5.591717 -9.730678 1.608525 2.738353 -0.675815 -0.670260 0.249240 0.697690 -0.281020 
-3.406860 18.343110 -22.996480 174.416400 50.553875 -177.222753 -14.891808 13.404374 3.720234 1.295584 -1.106565 -7.492331 -8.317751 4.086570 0.202589 -0.736122 4.407388 3.384111 -0.424110 -1.255690 -0.046350 18.299914 -10.767779 3.912498 6.986517 1.700215 -12.296958 7.640173 -3.639279 2.150840 0.114931 -2.787453 3.452814 -0.540790 0.666230 0.276600 -3.559554 -1.585631 -8.773430 14.482109 -6.245523 8.912069 -7.496740 -1.424709 -17.671844 0.119507 2.347706 -17.362919 2.924203 -14.118705 35.565742 -4.635540 -16.842370 2.879220 7.362032 -3.270578 3.617726 -13.015313 5.878313 -1.936938 10.903978 -5.944705 -0.894736 -4.538442 2.133246 0.725960 0.240940 -0.413000 -0.108240 -13.026354 8.953929 14.680288 22.197651 -1.770889 -1.743090 -6.311078 -14.884923 2.328178 2.854181 -0.716397 -0.637840 0.262290 0.608950 -0.275750 
-3.189410 18.414470 -23.074080 176.816586 52.315212 -175.821359 -14.937795 13.549219 3.597622 2.857107 -1.192878 -8.530522 -8.078449 4.257181 1.416835 -0.778958 4.457143 3.346462 -0.434240 -1.290620 -0.035440 18.271102 -10.480402 4.035492 7.603664 1.980688 -12.426931 9.131057 -3.355078 -1.089948 0.091800 -2.766281 3.438983 -0.555310 0.655560 0.301940 -3.497358 -2.217046 -8.771306 17.528300 -6.718905 10.722031 -8.903743 -0.733505 -17.376474 0.857715 2.293788 -17.353782 2.673410 -14.322417 35.052277 -4.932480 -16.710820 2.320430 5.513201 -3.564391 3.956229 -10.177756 6.967358 -1.479529 11.649184 -4.815798 -0.874257 -4.567865 2.127544 0.761800 0.234460 -0.399420 -0.123500 -12.282132 9.374900 14.788148 20.375539 -2.994424 -2.184041 -6.208482 -13.741616 2.068316 2.832870 -0.698967 -0.647920 0.248070 0.630360 -0.295820 
-2.963160 18.432680 -23.102160 177.000768 52.760471 -176.729563 -14.971760 13.482262 3.543384 3.633717 -1.193346 -8.946768 -8.819793 4.436978 1.808211 -0.769847 4.493829 3.296201 -0.462920 -1.297690 -0.038230 18.261905 -10.375910 4.095253 7.691536 2.172617 -12.712800 9.068718 -2.976846 -3.681055 0.086159 -2.711359 3.447002 -0.569310 0.614600 0.287050 -3.488905 -2.239953 -8.783018 17.312120 -7.278865 12.867756 -8.572044 -0.964357 -15.990388 0.728793 2.137045 -17.718371 2.321198 -14.953531 34.820956 -5.149820 -16.987200 0.994900 6.496587 -4.130377 4.438974 -11.503567 8.035791 -1.895652 14.224720 -5.853866 -0.820684 -4.526338 2.159557 0.779070 0.207200 -0.371900 -0.166220 -12.992082 9.983935 15.018546 20.790275 -2.528292 -2.314277 -6.651231 -15.986320 2.513269 2.907231 -0.636884 -0.643170 0.246040 0.648620 -0.302300 
-2.755430 18.399680 -23.165570 176.007908 54.569666 -177.948123 -14.970874 13.289984 3.525171 2.847026 -1.114330 -9.143160 -8.971836 4.342228 1.278721 -0.669306 4.444191 3.397700 -0.470780 -1.258910 -0.140940 18.274076 -10.473050 4.073237 6.285029 2.670654 -14.720180 10.479738 -2.882177 -3.567199 0.177803 -2.789880 3.471101 -0.533360 0.761330 0.287640 -3.723050 -1.711778 -8.605654 18.937477 -8.625703 14.546466 -10.461032 -1.737095 -14.814250 -0.296605 1.123460 -17.552822 1.823925 -13.742257 29.608308 -4.790210 -15.856870 4.728840 10.103839 -1.865057 3.453866 -15.044588 8.947477 -2.911662 15.387799 -3.614832 -0.539418 -4.725737 2.252907 0.577540 0.335100 -0.500870 -0.080010 -15.647148 10.457166 16.051422 23.159678 -0.760113 -1.782123 -6.513905 -16.523534 2.293985 2.910632 -0.789163 -0.617970 0.234530 0.616200 -0.217080 
-2.546540 18.353560 -23.218390 178.062224 54.842151 -177.675068 -15.000344 13.133891 3.522610 4.694998 -1.110585 -8.671351 -9.804539 4.295730 -0.227201 -0.583363 4.674857 3.350144 -0.504680 -1.312170 -0.208130 18.281093 -10.406350 4.044570 6.774090 2.995859 -15.003522 10.562883 -2.857170 -3.406564 0.235381 -2.863035 3.448341 -0.548680 0.847640 0.327660 -3.794226 -1.553871 -8.545402 20.635122 -9.451765 16.215114 -10.373216 -1.852238 -11.484050 -0.999342 0.883183 -18.164324 2.056697 -14.213934 26.829735 -4.908880 -16.410920 7.727560 11.480116 -2.851806 3.498042 -17.371079 7.763208 -3.213798 15.781301 0.259915 -0.292309 -4.911378 2.338129 0.468570 0.412580 -0.589220 -0.053270 -15.906303 11.888169 17.525357 24.048637 -3.079895 -2.266860 -6.268187 -16.067699 1.965798 2.894405 -0.899435 -0.601500 0.186910 0.638190 -0.177510 
-2.332650 18.296570 -23.268950 178.416118 56.270096 -177.413853 -15.092101 13.064456 3.597088 5.175354 -1.301063 -9.450128 -10.826967 4.092485 -1.422092 -0.501690 4.546035 3.350850 -0.246100 -0.938270 -0.030320 18.225307 -10.217098 3.982861 6.772996 3.490559 -16.785135 10.691423 -2.666017 -2.994882 0.150388 -2.677643 3.463434 -0.384390 0.667250 0.342320 -3.583585 -1.795490 -8.571944 19.521746 -9.720997 18.617975 -9.414946 -2.275843 -11.252567 0.605761 1.713603 -17.342447 3.744972 -15.297774 24.249096 -6.329590 -14.709410 3.720650 9.771788 -1.335267 2.667938 -14.051093 6.336002 -2.588150 15.693166 1.626381 -0.103862 -4.826643 2.432033 0.436740 0.340010 -0.449000 0.002340 -16.980327 9.585154 17.087911 25.922381 -4.336733 -1.996884 -7.988259 -5.379795 0.846308 2.672858 -1.169779 -0.460720 0.127420 0.438920 -0.170090 
